<svg width="270" height="270" viewBox="0 0 270 270" fill="none" xmlns="http://www.w3.org/2000/svg">
<path d="M215.367 4.21875H54.6328C40.7109 4.21875 29.5312 15.3984 29.5312 29.3203V240.891C29.5312 254.812 40.7109 265.992 54.6328 265.992H215.578C229.5 265.992 240.68 254.812 240.68 240.891V29.3203C240.469 15.3984 229.289 4.21875 215.367 4.21875ZM78.0469 229.289V169.805L107.789 199.547L78.0469 229.289ZM189.844 229.922H162.211L162.422 229.5V125.297C162.422 125.297 168.961 100.406 78.6797 135.422C78.4688 135.844 78.2578 39.0234 78.2578 39.0234L107.578 38.8125V100.828C107.578 100.828 189.844 68.3438 189.844 125.508V229.922ZM178.875 75.9375H147.656C158.836 63.2812 169.172 40.0781 169.172 40.0781H201.445C201.445 40.0781 195.961 54.8438 178.875 75.9375Z" fill="black"/>
</svg>
